HIERARCHY
ROOT Hips
{
  OFFSET 71.7574 47.5266 353.468
  CHANNELS 6 Xposition Yposition Zposition Zrotation Xrotation Yrotation
  JOINT Spine
  {
    OFFSET 0 0 0
    CHANNELS 3 Zrotation Xrotation Yrotation
    JOINT Spine1
    {
      OFFSET 19 0 0
      CHANNELS 3 Zrotation Xrotation Yrotation
      JOINT Neck
      {
        OFFSET 22.5 0.6 0
        CHANNELS 3 Zrotation Xrotation Yrotation
        JOINT Head
        {
          OFFSET 14 0.0308777 0
          CHANNELS 3 Zrotation Xrotation Yrotation
          End Site
          {
            OFFSET 17 0 0
          }
        }
      }
      JOINT LeftShoulder
      {
        OFFSET 19.8 3.7 4.3
        CHANNELS 3 Zrotation Xrotation Yrotation
        JOINT LeftArm
        {
          OFFSET 8 0 0
          CHANNELS 3 Zrotation Xrotation Yrotation
          JOINT LeftForeArm
          {
            OFFSET 15.2 0 0
            CHANNELS 3 Zrotation Xrotation Yrotation
            JOINT LeftHand
            {
              OFFSET 17.8 0 0
              CHANNELS 3 Zrotation Xrotation Yrotation
              End Site
              {
                OFFSET 7.2 0 0
              }
            }
          }
        }
      }
      JOINT RightShoulder
      {
        OFFSET 19.8 3.7 -4.3
        CHANNELS 3 Zrotation Xrotation Yrotation
        JOINT RightArm
        {
          OFFSET 8 0 0.151654
          CHANNELS 3 Zrotation Xrotation Yrotation
          JOINT RightForeArm
          {
            OFFSET 15.2 0 0
            CHANNELS 3 Zrotation Xrotation Yrotation
            JOINT RightHand
            {
              OFFSET 17.8 0 0
              CHANNELS 3 Zrotation Xrotation Yrotation
              End Site
              {
                OFFSET 7.2 0 0
              }
            }
          }
        }
      }
    }
  }
  JOINT LeftUpLeg
  {
    OFFSET 5.98425 -7.666 4.78879
    CHANNELS 3 Zrotation Xrotation Yrotation
    JOINT LeftLeg
    {
      OFFSET 16 0 0
      CHANNELS 3 Zrotation Xrotation Yrotation
      JOINT LeftFoot
      {
        OFFSET 18 0 0
        CHANNELS 3 Zrotation Xrotation Yrotation
        End Site
        {
          OFFSET 0 -10.8 0
        }
      }
    }
  }
  JOINT RightUpLeg
  {
    OFFSET 5.98425 -7.66598 -4.78879
    CHANNELS 3 Zrotation Xrotation Yrotation
    JOINT RightLeg
    {
      OFFSET 16 0 0
      CHANNELS 3 Zrotation Xrotation Yrotation
      JOINT RightFoot
      {
        OFFSET 18 0 0
        CHANNELS 3 Zrotation Xrotation Yrotation
        End Site
        {
          OFFSET 0 -10.8 0
        }
      }
    }
  }
  JOINT Tail
  {
    OFFSET 6.83696 -0.722574 0
    CHANNELS 3 Zrotation Xrotation Yrotation
    JOINT Tail1
    {
      OFFSET 12 0 0
      CHANNELS 3 Zrotation Xrotation Yrotation
      End Site
      {
        OFFSET 12 0 0
      }
    }
  }
}
MOTION
Frames:	7
Frame Time:	0.0166667
-3.59483 118.39 -55.8851 -9.94308 5.9082 90.8712 161.914 3.54068 1.38237 30.9352 3.75572 0.183395 23.4947 -7.13676 0.222051 -62.0204 80.3627 103.091 -108.537 -33.372 -139.544 119.089 -14.3775 -133.525 -83.7749 -7.91927 16.4878 -20.0759 3.33476 -14.1703 75.3162 -31.4084 47.879 60.8067 -22.1485 -33.9068 -88.688 4.62465 -16.5686 -4.35279 1.1134 -0.19288 -118.435 -4.21677 -27.256 86.4783 3.04156 8.22078 38.3469 -1.36497 -3.74095 -123.645 -5.48522 0.191114 81.5908 -6.51806 -1.72108 54.807 0.454686 -1.907 -39.5866 44.5838 -24.8161 -1.52419 -34.5472 -5.88375 
-3.41945 118.323 -55.7159 -10.3438 5.82023 91.1339 161.599 3.48013 1.35759 31.3726 3.72821 0.572905 23.2464 -7.1121 0.516549 -62.3232 80.1893 104.044 -108.559 -33.4426 -139.456 118.608 -14.3509 -133.527 -83.7203 -7.89733 16.6028 -20.4644 3.55099 -14.7046 75.3402 -31.335 47.8005 60.0122 -22.6288 -34.8032 -88.2787 3.80255 -16.0914 -4.69099 1.0703 0.00879728 -118.634 -4.51626 -27.853 86.8868 2.81827 8.20824 38.2417 -1.35933 -3.70282 -123.264 -5.29864 -0.066396 81.5446 -6.43462 -1.67939 54.9788 0.48568 -1.89484 -40.01 45.0762 -24.5766 -1.45101 -35.2599 -6.17132 
-3.23944 118.317 -55.5273 -10.6163 5.64447 91.549 161.364 3.32072 1.47013 31.9087 3.61112 0.976894 22.9847 -7.16528 0.773635 -62.0709 79.9701 104.805 -108.622 -33.5519 -139.404 118.036 -14.0668 -133.516 -83.6102 -7.71462 16.7534 -20.9122 3.67323 -14.9558 75.2616 -31.3294 47.5199 59.2011 -22.6048 -35.4914 -87.8321 3.26393 -15.7539 -4.6994 1.09795 -0.16537 -118.546 -4.93827 -28.4077 86.8906 2.61654 8.33313 38.1585 -1.38846 -3.72549 -122.781 -4.8983 0.167284 81.3603 -6.65574 -1.82892 55.4185 0.588697 -1.82489 -40.7602 45.613 -23.5076 -1.4281 -36.642 -6.40454 
-3.07721 118.322 -55.3163 -10.7452 5.47176 92.0879 161.136 3.0778 1.65007 32.4469 3.42902 1.51173 23.0472 -7.37294 1.02951 -61.7246 79.5783 105.288 -108.622 -33.6199 -139.26 117.399 -13.7864 -133.615 -83.5471 -7.47019 16.8733 -21.1413 3.61977 -14.7531 75.208 -31.3665 47.4189 58.4306 -22.4437 -36.0917 -87.3079 3.25863 -15.4877 -4.15377 1.13848 -0.589192 -118.25 -5.24557 -28.8246 86.7135 2.66428 8.54148 38.0885 -1.45151 -3.8145 -122.382 -4.62872 0.635854 81.1719 -7.16703 -2.02326 56.3454 0.717566 -1.75452 -41.8918 46.1208 -21.6307 -1.48698 -38.6468 -6.56476 
-2.91671 118.3 -55.1039 -10.8204 5.24205 92.6667 160.897 2.79596 1.80856 33.0967 3.22557 2.17919 23.1917 -7.60196 1.09398 -63.0644 78.8348 107.303 -108.596 -33.6635 -139.091 116.837 -13.508 -133.818 -83.5675 -7.20614 16.9781 -21.4319 3.64906 -14.794 75.1428 -31.4466 47.3732 57.8519 -21.9092 -36.5671 -86.9546 3.84206 -15.422 -2.95601 1.26509 -1.73183 -117.917 -5.29018 -29.0439 86.7107 2.89959 8.66498 38.0171 -1.51722 -3.91701 -122.067 -4.45889 1.04229 81.2327 -7.34291 -2.20971 57.1945 0.729105 -1.77657 -43.3994 46.4949 -18.944 -1.55839 -41.4294 -6.49589 
-2.7367 118.25 -54.8944 -10.9461 4.9488 93.2038 160.762 2.53608 1.92444 33.7612 3.04797 2.83974 23.0724 -7.76715 1.03675 -64.5092 77.9884 110.122 -108.574 -33.5986 -139.166 116.226 -13.1069 -134.295 -83.7791 -6.91383 17.1336 -21.8651 3.7433 -15.0318 75.0615 -31.5676 47.3627 57.7502 -20.8869 -37.1596 -86.8392 5.71028 -15.6673 -0.573693 1.32014 -3.3048 -117.702 -5.1848 -29.1467 87.1012 3.09882 8.53923 37.7539 -1.55067 -3.96426 -121.877 -4.17153 1.2933 81.6791 -7.27923 -2.46259 57.6291 0.640127 -1.84203 -45.1722 46.581 -15.5994 -1.60654 -44.8469 -6.17674 
-2.55859 118.18 -54.6856 -11.0274 4.61503 93.7857 160.846 2.25487 2.09258 34.2471 2.84734 3.47553 23.0906 -7.84419 1.195 -64.8397 77.5668 111.324 -108.431 -33.3457 -139.292 115.642 -12.6986 -134.931 -84.1948 -6.45069 17.3451 -22.5407 3.85821 -15.3198 74.9823 -31.878 47.7672 58.7325 -19.574 -38.0784 -87.202 9.63067 -16.4758 3.44863 1.10833 -4.91024 -117.985 -5.03458 -29.1581 88.0142 3.28665 8.07679 37.6313 -1.57482 -3.97419 -121.916 -3.85297 1.60939 82.6315 -7.43609 -2.75402 57.5294 0.56406 -1.87378 -47.0291 46.5491 -11.9524 -1.57416 -48.598 -5.56435 
